<svg width="24" height="30" viewBox="0 0 24 30" fill="none" xmlns="http://www.w3.org/2000/svg">
<path d="M19.9314 15.9003C19.9454 14.8152 20.2336 13.7513 20.7692 12.8076C21.3049 11.8639 22.0705 11.0709 22.9949 10.5026C22.4077 9.66391 21.6329 8.97368 20.7323 8.48676C19.8316 7.99985 18.8298 7.72965 17.8064 7.69763C15.6234 7.46849 13.5071 9.00391 12.3946 9.00391C11.2607 9.00391 9.54794 7.72038 7.70359 7.75833C6.51061 7.79687 5.34797 8.14378 4.32892 8.76525C3.30988 9.38673 2.4692 10.2616 1.8888 11.3046C-0.625404 15.6575 1.24996 22.0549 3.65835 25.5735C4.86333 27.2964 6.27159 29.221 8.11427 29.1528C9.91745 29.078 10.5909 28.0029 12.7675 28.0029C14.9239 28.0029 15.5557 29.1528 17.4358 29.1094C19.3707 29.0779 20.5898 27.3787 21.7525 25.6395C22.6182 24.4118 23.2844 23.055 23.7264 21.6192C22.6023 21.1438 21.643 20.3479 20.9681 19.3309C20.2933 18.314 19.9327 17.1208 19.9314 15.9003Z" fill="#1D2733"/>
<path d="M16.3803 5.38351C17.4352 4.11704 17.955 2.48921 17.8291 0.845703C16.2173 1.01499 14.7285 1.78532 13.6593 3.0032C13.1365 3.59816 12.7361 4.29033 12.481 5.04013C12.2259 5.78993 12.121 6.58266 12.1725 7.373C12.9786 7.3813 13.7762 7.20657 14.505 6.86195C15.2339 6.51734 15.8751 6.01183 16.3803 5.38351Z" fill="#1D2733"/>
</svg>
