<svg width="37" height="37" viewBox="0 0 37 37" fill="none" xmlns="http://www.w3.org/2000/svg">
<path d="M1.10497 4.13247L4.53 0.70914C4.75433 0.484336 5.02112 0.305803 5.31502 0.184055C5.60892 0.0623074 5.92405 0 6.24238 0C6.56072 0 6.87598 0.0623074 7.16988 0.184055C7.46378 0.305803 7.73056 0.484336 7.9549 0.70914L13.0928 7.5558C13.5118 8.02847 13.7429 8.63713 13.7429 9.26746C13.7429 9.8978 13.5118 10.5065 13.0928 10.9791L10.997 13.0744C12.6788 15.3579 14.5238 17.5177 16.5177 19.5369C18.8289 21.8099 21.2994 23.9169 23.9104 25.8415L25.9371 23.8169C26.4082 23.398 27.0178 23.1664 27.6495 23.1664C28.2812 23.1664 28.8909 23.398 29.362 23.8169L36.2118 28.9524C36.4591 29.1645 36.6575 29.4273 36.7935 29.7227C36.9296 30.0181 37 30.3391 37 30.664C37 30.989 36.9296 31.31 36.7935 31.6054C36.6575 31.9007 36.4591 32.1636 36.2118 32.3757L32.7869 35.798C30.8954 37.6899 28.4354 37.0829 25.9371 35.798C20.8411 32.8059 16.1286 29.2092 11.9029 25.0872C7.79455 20.7937 4.17343 16.0633 1.10497 10.9811C0.120519 8.27986 -0.788601 6.02233 1.10497 4.13247ZM2.81698 9.26796C5.68528 14.2214 9.13474 18.8181 13.0928 22.9613C17.4269 27.6613 27.649 34.0879 27.649 34.0879C28.4384 34.4987 30.6271 34.5348 31.2297 33.9319L33.4092 31.7533C33.8591 30.9994 34.0614 30.1263 33.4092 29.5747L29.0504 26.3074C28.7505 26.041 28.3626 25.8941 27.9606 25.8941C27.5587 25.8941 27.1708 26.041 26.8709 26.3074L24.1879 28.9915C23.5554 28.5457 13.4653 21.9188 7.85375 12.7961L10.6049 10.0463C10.8718 9.74588 11.0192 9.3591 11.0192 8.95803C11.0192 8.55696 10.8718 8.16967 10.6049 7.86924L7.33577 3.5131C7.20621 3.34867 7.04072 3.21586 6.85194 3.12443C6.66315 3.03299 6.45599 2.98551 6.24604 2.98551C6.03609 2.98551 5.82892 3.03299 5.64014 3.12443C5.45135 3.21586 5.28586 3.34867 5.1563 3.5131L2.97696 5.69067C2.11634 6.49489 2.36401 8.36617 2.81496 9.26796H2.81698Z" fill="#0695FE"/>
</svg>
