<svg width="76" height="75" viewBox="0 0 76 75" fill="none" xmlns="http://www.w3.org/2000/svg">
<path d="M44.9732 6.25055H30.2429C28.6769 6.24895 27.1741 6.86642 26.0639 7.96765C24.9537 9.06889 24.3265 10.5641 24.3199 12.1256V15.0636C24.319 15.8353 24.4707 16.5997 24.7665 17.3129C25.0623 18.0261 25.4962 18.6741 26.0435 19.2199C26.5908 19.7656 27.2407 20.1983 27.956 20.4932C28.6712 20.7881 29.4378 20.9395 30.2118 20.9386H44.9732C45.7472 20.9395 46.5138 20.7881 47.2291 20.4932C47.9443 20.1983 48.5942 19.7656 49.1415 19.2199C49.6888 18.6741 50.1228 18.0261 50.4186 17.3129C50.7143 16.5997 50.8661 15.8353 50.8652 15.0636V12.1256C50.8688 11.353 50.7188 10.5875 50.424 9.87306C50.1292 9.15866 49.6953 8.50959 49.1475 7.96333C48.5996 7.41707 47.9487 6.98446 47.2322 6.69048C46.5158 6.3965 45.748 6.24698 44.9732 6.25055Z" fill="#0695FE"/>
<path d="M54.0303 15.0585C54.0237 17.4516 53.0673 19.7449 51.3702 21.4371C49.6731 23.1293 47.3733 24.0829 44.9732 24.0895H30.2429C27.8429 24.0829 25.543 23.1293 23.8459 21.4371C22.1489 19.7449 21.1925 17.4516 21.1859 15.0585C21.1811 14.6573 21.0727 14.2641 20.871 13.9169C20.6693 13.5697 20.3813 13.2802 20.0346 13.0764C19.688 12.8726 19.2945 12.7614 18.8922 12.7536C18.4899 12.7457 18.0924 12.8414 17.738 13.0315C15.4932 14.2234 13.616 16.0019 12.3076 18.1765C10.9992 20.351 10.3089 22.8396 10.3106 25.3755V54.7815C10.3189 58.4838 11.7975 62.0321 14.4229 64.65C17.0484 67.2679 20.6069 68.7423 24.3199 68.7505H50.8963C54.6091 68.742 58.1673 67.2676 60.7926 64.6497C63.4178 62.0318 64.8963 58.4836 64.9045 54.7815V25.3755C64.9063 22.8396 64.216 20.351 62.9076 18.1765C61.5992 16.0019 59.722 14.2234 57.4772 13.0315C57.1228 12.8417 56.7254 12.7461 56.3232 12.7541C55.9211 12.7621 55.5277 12.8733 55.1813 13.0771C54.8348 13.2808 54.5468 13.5702 54.3452 13.9173C54.1436 14.2644 54.0351 14.6574 54.0303 15.0585ZM38.7985 52.9695H25.0721C24.4486 52.9695 23.8507 52.7225 23.4098 52.2829C22.969 51.8434 22.7213 51.2472 22.7213 50.6255C22.7213 50.0038 22.969 49.4076 23.4098 48.968C23.8507 48.5284 24.4486 48.2815 25.0721 48.2815H38.7985C39.422 48.2815 40.0199 48.5284 40.4607 48.968C40.9016 49.4076 41.1493 50.0038 41.1493 50.6255C41.1493 51.2472 40.9016 51.8434 40.4607 52.2829C40.0199 52.7225 39.422 52.9695 38.7985 52.9695ZM47.0101 40.4695H25.0721C24.4486 40.4695 23.8507 40.2225 23.4098 39.7829C22.969 39.3434 22.7213 38.7472 22.7213 38.1255C22.7213 37.5038 22.969 36.9076 23.4098 36.468C23.8507 36.0284 24.4486 35.7815 25.0721 35.7815H47.0101C47.6336 35.7815 48.2315 36.0284 48.6723 36.468C49.1132 36.9076 49.3609 37.5038 49.3609 38.1255C49.3609 38.7472 49.1132 39.3434 48.6723 39.7829C48.2315 40.2225 47.6336 40.4695 47.0101 40.4695Z" fill="#0695FE"/>
</svg>
