<svg width="37" height="28" viewBox="0 0 37 28" fill="none" xmlns="http://www.w3.org/2000/svg">
<path d="M32.375 28H4.62598C3.39719 27.996 2.22011 27.5026 1.35291 26.628C0.485707 25.7534 -0.000798003 24.5691 2.72316e-06 23.3346V4.66732C-0.00132792 3.43254 0.48504 2.24749 1.3523 1.37248C2.21956 0.497477 3.39684 0.00399017 4.62598 0H32.375C33.604 0.00399042 34.7813 0.497938 35.6484 1.37297C36.5155 2.24801 37.0016 3.43263 37 4.66732V23.3346C37.0011 24.569 36.5148 25.7534 35.6477 26.628C34.7807 27.5026 33.6037 27.996 32.375 28ZM14.546 14.387L4.11206 25.6053C4.19506 25.6254 11.398 25.6342 18.5 25.6342C25.371 25.6342 32.7999 25.6254 32.8879 25.6053L22.288 14.3679L18.5031 17.4028L14.546 14.387ZM2.31201 4.6683V23.3356C2.31566 23.5643 2.35303 23.791 2.42298 24.0086L12.723 12.8355L2.31604 4.6683H2.31201ZM34.688 4.6683L24.283 12.8355L34.583 24.0086C34.6523 23.7909 34.689 23.5642 34.692 23.3356V4.6683H34.688ZM3.46802 2.33685L18.5 14.002L33.532 2.33685H3.46802Z" fill="#0695FE"/>
</svg>
