<svg width="18" height="18" viewBox="0 0 18 18" fill="none" xmlns="http://www.w3.org/2000/svg">
<path d="M17.1562 9.46094C17.1562 11.1133 16.8047 12.5898 16.1016 13.8555C15.3984 15.1562 14.3789 16.1758 13.1133 16.8789C11.8477 17.6172 10.3711 17.9688 8.71875 17.9688C7.13672 17.9688 5.69531 17.582 4.35938 16.8086C3.02344 16.0352 1.93359 14.9453 1.16016 13.6094C0.386719 12.2734 0 10.832 0 9.25C0 7.70312 0.386719 6.22656 1.16016 4.89062C1.93359 3.55469 3.02344 2.5 4.35938 1.72656C5.69531 0.953125 7.13672 0.53125 8.71875 0.53125C10.9688 0.53125 12.9375 1.30469 14.5547 2.81641L12.1992 5.10156C11.4258 4.39844 10.5469 3.94141 9.49219 3.80078C8.50781 3.66016 7.52344 3.80078 6.57422 4.22266C5.58984 4.64453 4.81641 5.27734 4.25391 6.12109C3.62109 7.03516 3.30469 8.08984 3.30469 9.25C3.30469 10.2695 3.55078 11.1836 4.04297 12.0273C4.53516 12.8711 5.16797 13.5391 6.01172 14.0312C6.82031 14.5234 7.73438 14.7695 8.71875 14.7695C9.77344 14.7695 10.6875 14.5586 11.4961 14.0664C12.1289 13.7148 12.6562 13.1875 13.0781 12.5547C13.3594 12.0625 13.5703 11.5352 13.6758 11.0078H8.71875V7.98438H17.0156C17.0859 8.51172 17.1562 9.00391 17.1562 9.46094Z" fill="white"/>
</svg>
