<svg width="22" height="21" viewBox="0 0 22 21" fill="none" xmlns="http://www.w3.org/2000/svg">
<path d="M11 5.10938C11.9375 5.10938 12.8281 5.39062 13.6719 5.85938C14.5156 6.32812 15.1719 6.98438 15.6406 7.82812C16.1094 8.67188 16.3906 9.5625 16.3906 10.5C16.3906 11.4844 16.1094 12.375 15.6406 13.2188C15.1719 14.0625 14.5156 14.7188 13.6719 15.1875C12.8281 15.6562 11.9375 15.8906 11 15.8906C10.0156 15.8906 9.125 15.6562 8.28125 15.1875C7.4375 14.7188 6.78125 14.0625 6.3125 13.2188C5.84375 12.375 5.60938 11.4844 5.60938 10.5C5.60938 9.5625 5.84375 8.67188 6.3125 7.82812C6.78125 6.98438 7.4375 6.32812 8.28125 5.85938C9.125 5.39062 10.0156 5.10938 11 5.10938ZM11 14.0156C11.9375 14.0156 12.7812 13.6875 13.4844 12.9844C14.1406 12.3281 14.5156 11.4844 14.5156 10.5C14.5156 9.5625 14.1406 8.71875 13.4844 8.01562C12.7812 7.35938 11.9375 6.98438 11 6.98438C10.0156 6.98438 9.17188 7.35938 8.51562 8.01562C7.8125 8.71875 7.48438 9.5625 7.48438 10.5C7.48438 11.4844 7.8125 12.3281 8.51562 12.9844C9.17188 13.6875 10.0156 14.0156 11 14.0156ZM17.8906 4.875C17.8906 4.54688 17.75 4.26562 17.5156 3.98438C17.2344 3.75 16.9531 3.60938 16.625 3.60938C16.25 3.60938 15.9688 3.75 15.7344 3.98438C15.4531 4.26562 15.3594 4.54688 15.3594 4.875C15.3594 5.25 15.4531 5.53125 15.7344 5.76562C15.9688 6.04688 16.25 6.14062 16.625 6.14062C16.9531 6.14062 17.2344 6.04688 17.4688 5.76562C17.7031 5.53125 17.8438 5.25 17.8906 4.875ZM21.4531 6.14062C21.4531 7.03125 21.5 8.48438 21.5 10.5C21.5 12.5625 21.4531 14.0156 21.4062 14.9062C21.3594 15.7969 21.2188 16.5469 21.0312 17.2031C20.75 18 20.2812 18.7031 19.7188 19.2656C19.1562 19.8281 18.4531 20.25 17.7031 20.5312C17.0469 20.7656 16.25 20.9062 15.3594 20.9531C14.4688 21 13.0156 21 11 21C8.9375 21 7.48438 21 6.59375 20.9531C5.70312 20.9062 4.95312 20.7656 4.29688 20.4844C3.5 20.25 2.79688 19.8281 2.23438 19.2656C1.67188 18.7031 1.25 18 0.96875 17.2031C0.734375 16.5469 0.59375 15.7969 0.546875 14.9062C0.5 14.0156 0.5 12.5625 0.5 10.5C0.5 8.48438 0.5 7.03125 0.546875 6.14062C0.59375 5.25 0.734375 4.45312 0.96875 3.79688C1.25 3.04688 1.67188 2.34375 2.23438 1.78125C2.79688 1.21875 3.5 0.75 4.29688 0.46875C4.95312 0.28125 5.70312 0.140625 6.59375 0.09375C7.48438 0.046875 8.9375 0 11 0C13.0156 0 14.4688 0.046875 15.3594 0.09375C16.25 0.140625 17.0469 0.28125 17.7031 0.46875C18.4531 0.75 19.1562 1.21875 19.7188 1.78125C20.2812 2.34375 20.75 3.04688 21.0312 3.79688C21.2188 4.45312 21.3594 5.25 21.4531 6.14062ZM19.2031 16.6875C19.3906 16.1719 19.4844 15.3281 19.5781 14.1562C19.5781 13.5 19.625 12.5156 19.625 11.25V9.75C19.625 8.48438 19.5781 7.5 19.5781 6.84375C19.4844 5.67188 19.3906 4.82812 19.2031 4.3125C18.8281 3.375 18.125 2.67188 17.1875 2.29688C16.6719 2.10938 15.8281 2.01562 14.6562 1.92188C13.9531 1.92188 12.9688 1.875 11.75 1.875H10.25C8.98438 1.875 8 1.92188 7.34375 1.92188C6.17188 2.01562 5.32812 2.10938 4.8125 2.29688C3.82812 2.67188 3.17188 3.375 2.79688 4.3125C2.60938 4.82812 2.46875 5.67188 2.42188 6.84375C2.375 7.54688 2.375 8.53125 2.375 9.75V11.25C2.375 12.5156 2.375 13.5 2.42188 14.1562C2.46875 15.3281 2.60938 16.1719 2.79688 16.6875C3.17188 17.6719 3.875 18.3281 4.8125 18.7031C5.32812 18.8906 6.17188 19.0312 7.34375 19.0781C8 19.125 8.98438 19.125 10.25 19.125H11.75C13.0156 19.125 14 19.125 14.6562 19.0781C15.8281 19.0312 16.6719 18.8906 17.1875 18.7031C18.125 18.3281 18.8281 17.625 19.2031 16.6875Z" fill="white"/>
</svg>
