<svg width="48" height="40" viewBox="0 0 48 40" fill="none" xmlns="http://www.w3.org/2000/svg">
<path d="M7.88899 37.667H2.33299V2.333H7.88899V0H0.110992V40H7.88899V37.667Z" fill="white"/>
<path d="M40.111 2.333H45.667V37.667H40.111V40H47.889V0H40.111V2.333Z" fill="white"/>
<path d="M10.111 8H14.111V12H10.111V8Z" fill="white"/>
<path d="M22.111 8H26.111V12H22.111V8Z" fill="white"/>
<path d="M34.111 8H38.111V12H34.111V8Z" fill="white"/>
<path d="M10.111 18H14.111V22H10.111V18Z" fill="white"/>
<path d="M22.111 18H26.111V22H22.111V18Z" fill="white"/>
<path d="M34.111 18H38.111V22H34.111V18Z" fill="white"/>
<path d="M10.111 28H14.111V32H10.111V28Z" fill="white"/>
<path d="M22.111 28H26.111V32H22.111V28Z" fill="white"/>
<path d="M34.111 28H38.111V32H34.111V28Z" fill="white"/>
</svg>
