<svg width="75" height="75" viewBox="0 0 75 75" fill="none" xmlns="http://www.w3.org/2000/svg">
<path d="M41.219 18.7505H21.219C20.4358 18.7437 19.653 18.7854 18.875 18.8755C10.469 19.5945 6.25 24.5635 6.25 33.7195V46.2195C6.25 58.7195 11.25 61.1885 21.219 61.1885H22.469C22.8521 61.2137 23.2264 61.3152 23.5698 61.4869C23.9132 61.6586 24.2189 61.8971 24.469 62.1885L28.219 67.1885C28.5367 67.6977 28.9788 68.1177 29.5036 68.4088C30.0285 68.7 30.6188 68.8528 31.219 68.8528C31.8192 68.8528 32.4095 68.7 32.9344 68.4088C33.4592 68.1177 33.9013 67.6977 34.219 67.1885L37.969 62.1885C38.2027 61.8789 38.5049 61.6276 38.8518 61.4541C39.1987 61.2806 39.5811 61.1897 39.969 61.1885H41.219C50.375 61.1885 55.344 57.0015 56.063 48.5635C56.1531 47.7855 56.1948 47.0026 56.188 46.2195V33.7195C56.188 23.7508 51.1983 18.7611 41.219 18.7505ZM20.313 43.7505C19.6949 43.7505 19.0907 43.5672 18.5768 43.2238C18.0629 42.8804 17.6624 42.3924 17.4259 41.8214C17.1894 41.2503 17.1275 40.622 17.248 40.0158C17.3686 39.4096 17.6663 38.8528 18.1033 38.4158C18.5403 37.9787 19.0972 37.6811 19.7033 37.5605C20.3095 37.4399 20.9379 37.5018 21.5089 37.7383C22.0799 37.9749 22.568 38.3754 22.9113 38.8893C23.2547 39.4032 23.438 40.0074 23.438 40.6255C23.4395 41.0363 23.3596 41.4433 23.2031 41.8231C23.0466 42.2029 22.8164 42.5479 22.5259 42.8384C22.2355 43.1289 21.8904 43.359 21.5106 43.5156C21.1308 43.6721 20.7238 43.7519 20.313 43.7505ZM31.219 43.7505C30.6009 43.7505 29.9967 43.5672 29.4828 43.2238C28.9689 42.8804 28.5684 42.3924 28.3319 41.8214C28.0954 41.2503 28.0335 40.622 28.154 40.0158C28.2746 39.4096 28.5723 38.8528 29.0093 38.4158C29.4463 37.9787 30.0032 37.6811 30.6093 37.5605C31.2155 37.4399 31.8439 37.5018 32.4149 37.7383C32.9859 37.9749 33.474 38.3754 33.8173 38.8893C34.1607 39.4032 34.344 40.0074 34.344 40.6255C34.3455 41.0363 34.2656 41.4433 34.1091 41.8231C33.9526 42.2029 33.7224 42.5479 33.4319 42.8384C33.1415 43.1289 32.7964 43.359 32.4166 43.5156C32.0368 43.6721 31.6298 43.7519 31.219 43.7505ZM42.157 43.7505C41.5389 43.7505 40.9347 43.5672 40.4208 43.2238C39.9069 42.8804 39.5064 42.3924 39.2699 41.8214C39.0334 41.2503 38.9715 40.622 39.092 40.0158C39.2126 39.4096 39.5103 38.8528 39.9473 38.4158C40.3843 37.9787 40.9412 37.6811 41.5473 37.5605C42.1535 37.4399 42.7819 37.5018 43.3529 37.7383C43.9239 37.9749 44.412 38.3754 44.7553 38.8893C45.0987 39.4032 45.282 40.0074 45.282 40.6255C45.2835 41.0363 45.2036 41.4434 45.047 41.8233C44.8904 42.2032 44.6602 42.5483 44.3696 42.8388C44.079 43.1293 43.7338 43.3594 43.3539 43.5158C42.974 43.6723 42.5669 43.7521 42.156 43.7505H42.157Z" fill="#0695FE"/>
<path d="M68.688 21.2195V33.7195C68.688 39.9695 66.751 44.2195 62.876 46.5635C62.6615 46.6834 62.4186 46.7432 62.1729 46.7367C61.9272 46.7301 61.6878 46.6575 61.4799 46.5264C61.272 46.3953 61.1034 46.2105 60.9916 45.9916C60.8799 45.7727 60.8292 45.5278 60.845 45.2825L60.876 33.7205C60.875 21.2195 53.715 14.0635 41.215 14.0635L22.188 14.0945C21.9427 14.1102 21.6978 14.0596 21.4789 13.9479C21.26 13.8361 21.0752 13.6674 20.9441 13.4596C20.813 13.2517 20.7403 13.0123 20.7338 12.7666C20.7273 12.5209 20.7871 12.278 20.907 12.0635C23.25 8.18749 27.5 6.25049 33.715 6.25049H53.715C63.6863 6.25049 68.6773 11.2402 68.688 21.2195Z" fill="#0695FE"/>
</svg>
