<svg width="32" height="34" viewBox="0 0 32 34" fill="none" xmlns="http://www.w3.org/2000/svg">
<path d="M22.2108 24.1905L6.18026 33.176L6.13009 33.2004C5.56145 33.5335 4.89247 33.7204 4.18167 33.7204C2.4005 33.7204 0.903651 32.5423 0.468811 30.95C0.463236 30.9445 0.460449 30.9418 0.460449 30.9418L14.7098 16.2529L22.2108 24.1905Z" fill="#EA4335"/>
<path d="M31.125 17.0329C31.125 18.4546 30.3055 19.6977 29.093 20.3314L22.2108 24.1905L14.3837 16.586L22.1857 9.84277L29.1013 13.7425L29.118 13.7506C30.3139 14.3843 31.125 15.6192 31.125 17.0329Z" fill="#FBBC04"/>
<path d="M15.1948 16.6263L0.460457 30.9415C0.376833 30.6328 0.335022 30.3159 0.335022 29.9828V4.0254C0.335022 3.6923 0.376833 3.36732 0.460457 3.05859L15.1948 16.6263Z" fill="#4285F4"/>
<path d="M0.460449 3.05882C0.903651 1.45831 2.4005 0.280273 4.18167 0.280273C4.90919 0.280273 5.58654 0.483384 6.1719 0.816484L22.1857 9.84268L14.8102 17.0003L0.460449 3.05882Z" fill="#34A853"/>
</svg>
