<svg width="42" height="42" viewBox="0 0 42 42" fill="none" xmlns="http://www.w3.org/2000/svg">
<path d="M37.7596 31.6849L32.6366 30.2079V28.9079C33.3245 28.3561 33.8601 27.6377 34.1926 26.8209H34.5726C35.2569 26.8204 35.9131 26.5483 36.397 26.0644C36.8809 25.5805 37.153 24.9243 37.1536 24.2399V19.0799C37.1506 17.1292 36.4117 15.2514 35.0846 13.8217C33.7574 12.392 31.9397 11.5157 29.9946 11.3679C29.0419 8.34958 27.15 5.71445 24.5947 3.84673C22.0394 1.97901 18.9543 0.976343 15.7892 0.984918C12.6241 0.993493 9.54443 2.01286 6.99928 3.8944C4.45413 5.77594 2.57653 8.42128 1.64022 11.4447C0.703909 14.4682 0.757847 17.7117 1.79417 20.7024C2.83049 23.693 4.79501 26.2744 7.40131 28.0703C10.0076 29.8662 13.1194 30.7826 16.2831 30.6859C19.4467 30.5893 22.4968 29.4846 24.9886 27.5329C25.3042 28.0589 25.7104 28.5247 26.1886 28.9089V30.2089L21.0636 31.6849C20.1241 31.9591 19.2985 32.5299 18.7101 33.3119C18.1216 34.0939 17.8019 35.0452 17.7986 36.0239V41.0149H41.0246V36.0239C41.0211 35.0453 40.7013 34.094 40.1129 33.312C39.5245 32.53 38.699 31.9593 37.7596 31.6849ZM33.1526 31.6989L32.2826 34.7439L30.3776 33.2149L32.1776 31.4149L33.1526 31.6989ZM29.2306 37.1439H29.5906L30.4506 39.7249H28.3706L29.2306 37.1439ZM29.7886 35.8539H29.0326L28.2266 35.0479L29.4106 34.0999L30.5946 35.0479L29.7886 35.8539ZM34.5716 25.5309H34.5246C34.5526 25.317 34.5673 25.1016 34.5686 24.8859V22.9499C34.9108 22.9499 35.2391 23.0859 35.4811 23.3279C35.7231 23.5699 35.8591 23.8982 35.8591 24.2404C35.8591 24.5827 35.7231 24.9109 35.4811 25.1529C35.2391 25.395 34.9108 25.5309 34.5686 25.5309H34.5716ZM35.8616 19.0789V22.0149C35.4712 21.7826 35.0259 21.6586 34.5716 21.6559H34.4546C34.3219 21.2797 34.076 20.9537 33.7507 20.7227C33.4253 20.4918 33.0365 20.3671 32.6376 20.3659H30.3246C29.824 20.3649 29.3305 20.2482 28.8826 20.0249L27.4506 19.3149C27.1135 19.1463 26.739 19.0667 26.3625 19.0836C25.986 19.1005 25.6201 19.2133 25.2995 19.4114C24.9789 19.6095 24.7142 19.8862 24.5306 20.2154C24.3471 20.5445 24.2507 20.9151 24.2506 21.2919V21.6619C23.7963 21.6646 23.351 21.7886 22.9606 22.0209V17.2509C22.9602 16.7922 23.1044 16.3451 23.3726 15.973C23.6408 15.6009 24.0193 15.3227 24.4546 15.1779L24.6456 15.1139L24.7666 14.9529C25.3089 14.2334 26.0106 13.6493 26.8164 13.2462C27.6223 12.8432 28.5105 12.6323 29.4116 12.6299C31.1218 12.6318 32.7615 13.3119 33.9711 14.521C35.1806 15.7302 35.8612 17.3697 35.8636 19.0799L35.8616 19.0789ZM21.6696 17.2489V24.2409C21.6731 24.5158 21.7211 24.7883 21.8116 25.0479C20.0432 26.205 17.9759 26.8215 15.8626 26.8219C13.8544 26.8235 11.8843 26.2736 10.1671 25.2324C8.44991 24.1911 7.05157 22.6984 6.12455 20.9169C5.19753 19.1355 4.7774 17.1337 4.90998 15.1298C5.04256 13.126 5.72275 11.197 6.87639 9.55324C8.03003 7.90945 9.61284 6.61394 11.4522 5.80798C13.2916 5.00202 15.317 4.71653 17.3075 4.98265C19.298 5.24877 21.1772 6.05629 22.7403 7.31714C24.3034 8.578 25.4903 10.2438 26.1716 12.1329C25.2732 12.5908 24.4827 13.2347 23.8526 14.0219C23.2078 14.2799 22.6551 14.7252 22.266 15.3005C21.8768 15.8757 21.6691 16.5544 21.6696 17.2489ZM22.9596 24.2409C22.9601 23.899 23.0962 23.5711 23.338 23.3293C23.5798 23.0875 23.9076 22.9514 24.2496 22.9509V24.8859C24.2508 25.1016 24.2655 25.317 24.2936 25.5309H24.2496C23.9076 25.5304 23.5798 25.3943 23.338 25.1525C23.0962 24.9107 22.9601 24.5829 22.9596 24.2409ZM2.31457 15.8539C2.31274 12.6542 3.44395 9.55723 5.50766 7.11199C7.57136 4.66675 10.4342 3.03124 13.5888 2.4954C16.7433 1.95957 19.9856 2.55802 22.741 4.18467C25.4964 5.81132 27.5868 8.36108 28.6416 11.3819C28.2098 11.4325 27.7837 11.5229 27.3686 11.6519C26.5988 9.54718 25.2666 7.69384 23.5168 6.29353C21.7671 4.89322 19.6668 3.99956 17.4446 3.70979C15.2223 3.42001 12.9631 3.74522 10.9128 4.65002C8.86244 5.55482 7.09951 7.00456 5.81576 8.84154C4.53201 10.6785 3.77661 12.8324 3.63173 15.0688C3.48686 17.3052 3.95806 19.5385 4.99407 21.5257C6.03009 23.513 7.59124 25.178 9.50769 26.3398C11.4241 27.5016 13.6225 28.1156 15.8636 28.1149C18.2238 28.115 20.5329 27.4273 22.5086 26.1359C22.885 26.4833 23.357 26.7097 23.8636 26.7859C21.8447 28.2661 19.4551 29.1576 16.9601 29.3616C14.4651 29.5656 11.9624 29.074 9.72989 27.9415C7.49741 26.8089 5.62255 25.0797 4.31354 22.9459C3.00452 20.8121 2.31258 18.3572 2.31457 15.8539ZM25.5406 24.8859V21.2859C25.5405 21.129 25.5806 20.9747 25.6569 20.8376C25.7333 20.7006 25.8435 20.5853 25.977 20.5029C26.1105 20.4204 26.2628 20.3734 26.4196 20.3664C26.5763 20.3594 26.7323 20.3927 26.8726 20.4629L28.3056 21.1789C28.933 21.492 29.6244 21.6553 30.3256 21.6559H32.6376C32.8086 21.6562 32.9725 21.7242 33.0934 21.8451C33.2143 21.966 33.2823 22.1299 33.2826 22.3009V24.8819C33.2826 25.9086 32.8747 26.8932 32.1488 27.6191C31.4228 28.3451 30.4382 28.7529 29.4116 28.7529C28.3849 28.7529 27.4003 28.3451 26.6744 27.6191C25.9484 26.8932 25.5406 25.9086 25.5406 24.8819V24.8859ZM29.4116 30.0469C30.0751 30.0467 30.7322 29.9176 31.3466 29.6669V30.4249L29.4116 32.3599L27.4766 30.4249V29.6669C28.0909 29.9176 28.7481 30.0467 29.4116 30.0469ZM26.6436 31.4149L28.4436 33.2149L26.5376 34.7389L25.6676 31.6939L26.6436 31.4149ZM19.0886 36.0219C19.0909 35.3229 19.3191 34.6434 19.7392 34.0847C20.1592 33.5261 20.7487 33.1182 21.4196 32.9219L24.4286 32.0539L25.8286 36.9599L27.2096 35.8549L28.0246 36.6699L27.0106 39.7249H22.9596V36.4989H21.6696V39.7249H19.0896L19.0886 36.0219ZM39.7336 39.7219H37.1536V36.4989H35.8636V39.7249H31.8126L30.7946 36.6729L31.6096 35.8579L32.9906 36.9629L34.3906 32.0569L37.3996 32.9249C38.0707 33.1209 38.6605 33.5286 39.0808 34.0873C39.5011 34.6461 39.7294 35.3258 39.7316 36.0249L39.7336 39.7219Z" fill="white"/>
<path d="M16.5086 14.037V6.17603H15.2186V14.037C14.8423 14.1697 14.5164 14.4156 14.2854 14.7409C14.0545 15.0663 13.9298 15.4551 13.9286 15.854C13.9307 16.1628 14.0076 16.4664 14.1526 16.739L10.2176 21.239L11.1886 22.089L15.0886 17.63C15.3263 17.7344 15.5826 17.7897 15.8422 17.7928C16.1018 17.7958 16.3594 17.7464 16.5995 17.6477C16.8396 17.5489 17.0573 17.4027 17.2396 17.2179C17.4219 17.033 17.565 16.8133 17.6605 16.5719C17.756 16.3304 17.8017 16.0722 17.7951 15.8127C17.7885 15.5532 17.7297 15.2976 17.622 15.0614C17.5144 14.8251 17.3602 14.613 17.1687 14.4377C16.9773 14.2624 16.7524 14.1274 16.5076 14.041L16.5086 14.037ZM15.8636 16.499C15.736 16.499 15.6113 16.4612 15.5052 16.3903C15.3992 16.3194 15.3165 16.2187 15.2677 16.1009C15.2189 15.983 15.2061 15.8533 15.231 15.7282C15.2559 15.6031 15.3173 15.4881 15.4075 15.3979C15.4977 15.3077 15.6126 15.2463 15.7378 15.2214C15.8629 15.1965 15.9926 15.2093 16.1104 15.2581C16.2283 15.3069 16.329 15.3896 16.3999 15.4957C16.4708 15.6018 16.5086 15.7265 16.5086 15.854C16.5083 16.025 16.4403 16.1889 16.3194 16.3098C16.1985 16.4307 16.0346 16.4988 15.8636 16.499Z" fill="white"/>
<path d="M2.2156 24.4449L1.0246 22.5579V28.7579H2.3146V26.8009C3.94255 28.8271 6.00559 30.461 8.35084 31.5815C10.6961 32.702 13.2634 33.2804 15.8626 33.2739V31.9839C13.1348 31.9897 10.4505 31.3006 8.06282 29.9816C5.67514 28.6626 3.6628 26.7571 2.2156 24.4449Z" fill="white"/>
<path d="M19.0896 15.209H20.3796V16.499H19.0896V15.209Z" fill="white"/>
<path d="M11.3476 15.209H12.6376V16.499H11.3476V15.209Z" fill="white"/>
</svg>
