<svg width="57" height="63" viewBox="0 0 57 63" fill="none" xmlns="http://www.w3.org/2000/svg">
<path d="M56.343 28.7505V15.0315C56.2748 13.6644 55.8341 12.342 55.0687 11.2073C54.3032 10.0726 53.2421 9.16873 52 8.59352L34.593 1.47352C30.6759 -0.120243 26.2911 -0.120243 22.374 1.47352L4.968 8.59352C3.73348 9.17537 2.68023 10.0817 1.92076 11.2156C1.16129 12.3495 0.724133 13.6685 0.655998 15.0315L0.655998 28.7505C0.655998 44.0315 11.75 58.3435 26.906 62.5315C27.95 62.8129 29.05 62.8129 30.094 62.5315C45.25 58.3435 56.343 44.0315 56.343 28.7505ZM30.843 34.2195V42.4385C30.8303 43.0517 30.5779 43.6354 30.1398 44.0646C29.7016 44.4938 29.1128 44.7341 28.4995 44.7341C27.8862 44.7341 27.2974 44.4938 26.8592 44.0646C26.4211 43.6354 26.1687 43.0517 26.156 42.4385V34.2185C24.3753 33.6586 22.8538 32.4796 21.8671 30.895C20.8805 29.3104 20.4937 27.4249 20.777 25.5798C21.0602 23.7347 21.9947 22.052 23.4112 20.8363C24.8278 19.6206 26.6328 18.9523 28.4995 18.9523C30.3662 18.9523 32.1712 19.6206 33.5878 20.8363C35.0043 22.052 35.9388 23.7347 36.222 25.5798C36.5053 27.4249 36.1185 29.3104 35.1319 30.895C34.1452 32.4796 32.6237 33.6596 30.843 34.2195Z" fill="#0695FE"/>
</svg>
