<svg width="34" height="40" viewBox="0 0 34 40" fill="none" xmlns="http://www.w3.org/2000/svg">
<path d="M30.0073 12.3051L31.5753 10.7371C31.8686 10.4446 32.0337 10.0475 32.0343 9.63325C32.0348 9.21898 31.8708 8.82146 31.5783 8.52813C31.2857 8.2348 30.8886 8.06969 30.4744 8.06913C30.0601 8.06857 29.6626 8.23259 29.3693 8.52513L27.7963 10.0941C25.1783 7.90717 21.9548 6.57195 18.5573 6.26713V3.12613H20.0653C20.4723 3.11582 20.8592 2.94689 21.1434 2.65536C21.4277 2.36384 21.5868 1.97279 21.5868 1.56563C21.5868 1.15847 21.4277 0.767418 21.1434 0.47589C20.8592 0.184363 20.4723 0.0154315 20.0653 0.00512695L13.9323 0.00512695C13.5252 0.0154315 13.1383 0.184363 12.8541 0.47589C12.5699 0.767418 12.4108 1.15847 12.4108 1.56563C12.4108 1.97279 12.5699 2.36384 12.8541 2.65536C13.1383 2.94689 13.5252 3.11582 13.9323 3.12613H15.4403V6.26713C11.6808 6.61559 8.14624 8.21292 5.40041 10.8044C2.65458 13.3958 0.855612 16.8321 0.290425 20.5652C-0.274761 24.2982 0.426393 28.113 2.28206 31.4011C4.13772 34.6893 7.04101 37.2613 10.5289 38.707C14.0167 40.1527 17.8882 40.3888 21.5259 39.3777C25.1636 38.3666 28.3579 36.1664 30.5994 33.1282C32.8409 30.09 34.0005 26.3887 33.8932 22.6146C33.7858 18.8405 32.4178 15.2111 30.0073 12.3051ZM16.9963 36.8841C14.2703 36.8831 11.6058 36.0739 9.33964 34.5587C7.07353 33.0435 5.30758 30.8904 4.26507 28.3716C3.22256 25.8528 2.9503 23.0814 3.48272 20.4079C4.01515 17.7344 5.32834 15.2788 7.25627 13.3516C9.18419 11.4244 11.6403 10.1121 14.314 9.58062C16.9877 9.04916 19.7589 9.32243 22.2773 10.3659C24.7957 11.4093 26.9482 13.176 28.4626 15.4427C29.977 17.7093 30.7853 20.3741 30.7853 23.1001C30.781 26.7554 29.3267 30.2597 26.7416 32.844C24.1564 35.4282 20.6516 36.8812 16.9963 36.8841ZM24.2283 15.8681C24.3732 16.013 24.4883 16.185 24.5667 16.3744C24.6452 16.5637 24.6856 16.7667 24.6856 16.9716C24.6856 17.1766 24.6452 17.3795 24.5667 17.5689C24.4883 17.7582 24.3732 17.9303 24.2283 18.0751L18.1043 24.2051C17.8115 24.4979 17.4143 24.6624 17.0003 24.6624C16.5862 24.6624 16.1891 24.4979 15.8963 24.2051C15.6035 23.9123 15.439 23.5152 15.439 23.1011C15.439 22.687 15.6035 22.2899 15.8963 21.9971L22.0243 15.8691C22.1692 15.7239 22.3413 15.6087 22.5308 15.53C22.7203 15.4513 22.9234 15.4108 23.1286 15.4107C23.3337 15.4106 23.5369 15.451 23.7264 15.5295C23.916 15.6079 24.0882 15.723 24.2333 15.8681H24.2283Z" fill="white"/>
</svg>
