<svg width="32" height="40" viewBox="0 0 32 40" fill="none" xmlns="http://www.w3.org/2000/svg">
<path d="M30.0244 3.6C29.6253 3.19919 29.1507 2.88146 28.6281 2.66519C28.1054 2.44892 27.5451 2.33839 26.9794 2.34H25.0314V1.953C25.0301 1.43457 24.8232 0.937832 24.4562 0.571716C24.0891 0.205601 23.5919 -1.43134e-06 23.0734 2.59005e-07H8.97343C8.45482 -0.000266295 7.9573 0.205219 7.59003 0.571363C7.22276 0.937507 7.01575 1.4344 7.01443 1.953V2.344H5.06142C3.92294 2.34584 2.83151 2.79837 2.02573 3.60265C1.21995 4.40693 0.765389 5.49753 0.761425 6.636L0.724426 35.7C0.724426 36.8404 1.17746 37.9342 1.98387 38.7406C2.79027 39.547 3.884 40 5.02443 40H26.9434C28.0819 39.9982 29.1733 39.5456 29.9791 38.7413C30.7849 37.9371 31.2395 36.8465 31.2434 35.708L31.2754 6.646C31.2792 6.0807 31.1706 5.52029 30.9558 4.99737C30.7411 4.47444 30.4245 3.99944 30.0244 3.6ZM9.36243 2.344H22.6814V4.688H9.36243V2.344ZM28.8994 35.705C28.8976 36.2229 28.6906 36.719 28.3238 37.0846C27.9571 37.4503 27.4603 37.6557 26.9424 37.656H5.02443C4.50628 37.6552 4.00963 37.4487 3.64362 37.082C3.27761 36.7152 3.07216 36.2182 3.07243 35.7L3.10443 6.639C3.10628 6.12109 3.31325 5.62502 3.68003 5.25936C4.04681 4.89371 4.54351 4.68826 5.06142 4.688H7.01243V5.079C7.01375 5.5976 7.22076 6.09449 7.58803 6.46064C7.9553 6.82678 8.45283 7.03227 8.97143 7.032H23.0714C23.59 7.03227 24.0876 6.82678 24.4548 6.46064C24.8221 6.09449 25.0291 5.5976 25.0304 5.079V4.687H26.9744C27.2313 4.68674 27.4858 4.73711 27.7232 4.83524C27.9606 4.93337 28.1764 5.07733 28.3581 5.2589C28.5399 5.44046 28.684 5.65607 28.7824 5.89339C28.8808 6.13071 28.9314 6.3851 28.9314 6.642L28.8994 35.705Z" fill="white"/>
<path d="M16.4014 15.625H24.7514C24.9053 15.625 25.0577 15.5947 25.1999 15.5358C25.3421 15.4769 25.4713 15.3906 25.5802 15.2817C25.689 15.1729 25.7753 15.0437 25.8342 14.9015C25.8931 14.7593 25.9234 14.6069 25.9234 14.453C25.9234 14.2991 25.8931 14.1467 25.8342 14.0045C25.7753 13.8623 25.689 13.7331 25.5802 13.6243C25.4713 13.5155 25.3421 13.4291 25.1999 13.3702C25.0577 13.3113 24.9053 13.281 24.7514 13.281H16.4014C16.2475 13.281 16.0951 13.3113 15.9529 13.3702C15.8107 13.4291 15.6815 13.5155 15.5727 13.6243C15.4639 13.7331 15.3775 13.8623 15.3186 14.0045C15.2597 14.1467 15.2294 14.2991 15.2294 14.453C15.2294 14.6069 15.2597 14.7593 15.3186 14.9015C15.3775 15.0437 15.4639 15.1729 15.5727 15.2817C15.6815 15.3906 15.8107 15.4769 15.9529 15.5358C16.0951 15.5947 16.2475 15.625 16.4014 15.625Z" fill="white"/>
<path d="M16.4014 23.438H24.7514C25.0623 23.438 25.3604 23.3145 25.5802 23.0947C25.7999 22.8749 25.9234 22.5768 25.9234 22.266C25.9234 21.9552 25.7999 21.657 25.5802 21.4373C25.3604 21.2175 25.0623 21.094 24.7514 21.094H16.4014C16.0906 21.094 15.7925 21.2175 15.5727 21.4373C15.3529 21.657 15.2294 21.9552 15.2294 22.266C15.2294 22.5768 15.3529 22.8749 15.5727 23.0947C15.7925 23.3145 16.0906 23.438 16.4014 23.438Z" fill="white"/>
<path d="M24.7844 28.906H16.4014C16.0906 28.906 15.7925 29.0295 15.5727 29.2493C15.3529 29.4691 15.2294 29.7672 15.2294 30.078C15.2294 30.3888 15.3529 30.6869 15.5727 30.9067C15.7925 31.1265 16.0906 31.25 16.4014 31.25H24.7844C25.0953 31.25 25.3934 31.1265 25.6131 30.9067C25.8329 30.6869 25.9564 30.3888 25.9564 30.078C25.9564 29.7672 25.8329 29.4691 25.6131 29.2493C25.3934 29.0295 25.0953 28.906 24.7844 28.906Z" fill="white"/>
<path d="M11.3994 11.2621L8.68944 13.9621L8.05045 13.3251C7.82848 13.1158 7.53372 13.0011 7.22864 13.0053C6.92355 13.0095 6.6321 13.1324 6.41603 13.3478C6.19996 13.5632 6.07624 13.8543 6.07109 14.1594C6.06594 14.4644 6.17976 14.7595 6.38844 14.9821L7.85844 16.4481C8.07907 16.6681 8.3779 16.7916 8.68944 16.7916C9.00098 16.7916 9.29982 16.6681 9.52045 16.4481L13.0614 12.9171C13.2701 12.6945 13.3839 12.3994 13.3788 12.0944C13.3736 11.7893 13.2499 11.4982 13.0338 11.2828C12.8178 11.0674 12.5263 10.9445 12.2212 10.9403C11.9162 10.9361 11.6214 11.0508 11.3994 11.2601V11.2621Z" fill="white"/>
<path d="M11.3994 19.672L8.68944 22.372L8.05045 21.735C7.82848 21.5257 7.53372 21.411 7.22864 21.4152C6.92355 21.4194 6.6321 21.5423 6.41603 21.7577C6.19996 21.9731 6.07624 22.2642 6.07109 22.5693C6.06594 22.8744 6.17976 23.1694 6.38844 23.392L7.85844 24.858C8.07907 25.078 8.3779 25.2015 8.68944 25.2015C9.00098 25.2015 9.29982 25.078 9.52045 24.858L13.0614 21.327C13.2701 21.1044 13.3839 20.8093 13.3788 20.5043C13.3736 20.1992 13.2499 19.9081 13.0338 19.6927C12.8178 19.4773 12.5263 19.3544 12.2212 19.3502C11.9162 19.346 11.6214 19.4607 11.3994 19.67V19.672Z" fill="white"/>
<path d="M11.3994 27.484L8.68944 30.184L8.05045 29.547C7.82848 29.3377 7.53372 29.223 7.22864 29.2272C6.92355 29.2314 6.6321 29.3543 6.41603 29.5697C6.19996 29.7851 6.07624 30.0762 6.07109 30.3813C6.06594 30.6863 6.17976 30.9814 6.38844 31.204L7.85844 32.67C8.0792 32.8897 8.37798 33.0131 8.68944 33.0131C9.0009 33.0131 9.29969 32.8897 9.52045 32.67L13.0614 29.139C13.2701 28.9164 13.3839 28.6213 13.3788 28.3163C13.3736 28.0112 13.2499 27.7201 13.0338 27.5047C12.8178 27.2893 12.5263 27.1665 12.2212 27.1622C11.9162 27.158 11.6214 27.2727 11.3994 27.482V27.484Z" fill="white"/>
</svg>
