<svg width="55" height="72" viewBox="0 0 55 72" fill="none" xmlns="http://www.w3.org/2000/svg">
<path d="M52.734 6.487C52.0156 5.76524 51.1612 5.19315 50.2202 4.80384C49.2792 4.41454 48.2703 4.21575 47.252 4.219H43.752V3.519C43.7504 2.58515 43.3783 1.6901 42.7174 1.03033C42.0565 0.370558 41.1608 -1.20746e-06 40.227 1.45331e-07L14.843 1.45331e-07C13.9095 -0.000267721 13.014 0.369763 12.353 1.02891C11.692 1.68806 11.3194 2.5825 11.317 3.516V4.216H7.806C5.75523 4.21705 3.78843 5.03067 2.33626 6.47872C0.884089 7.92677 0.0648769 9.89124 0.0579989 11.942L2.59206e-07 64.257C-0.000262996 65.2743 0.200003 66.2817 0.589344 67.2216C0.978686 68.1615 1.54947 69.0154 2.26905 69.7345C2.98864 70.4536 3.84292 71.0238 4.78304 71.4126C5.72316 71.8013 6.73068 72.0009 7.748 72H47.193C49.2438 71.999 51.2106 71.1853 52.6627 69.7373C54.1149 68.2892 54.9341 66.3248 54.941 64.274L55 11.962C55.004 10.9448 54.8057 9.93691 54.4167 8.997C54.0277 8.05709 53.4557 7.20389 52.734 6.487ZM15.548 4.219H39.522V8.438H15.548V4.219ZM50.716 64.27C50.7128 65.2022 50.3404 66.0952 49.6803 66.7534C49.0202 67.4116 48.1262 67.7815 47.194 67.782H7.748C7.28563 67.7824 6.8277 67.6917 6.40041 67.515C5.97312 67.3383 5.58484 67.0792 5.25775 66.7524C4.93066 66.4256 4.67119 66.0375 4.49416 65.6104C4.31712 65.1832 4.226 64.7254 4.226 64.263L4.284 11.951C4.28717 11.0188 4.65958 10.1258 5.31968 9.46762C5.97978 8.80939 6.8738 8.43952 7.806 8.439H11.317V9.139C11.3194 10.0725 11.692 10.9669 12.353 11.6261C13.014 12.2852 13.9095 12.6553 14.843 12.655H40.228C41.1615 12.6553 42.057 12.2852 42.718 11.6261C43.379 10.9669 43.7516 10.0725 43.754 9.139V8.439H47.254C47.7164 8.43861 48.1743 8.52934 48.6016 8.70601C49.0289 8.88268 49.4172 9.14182 49.7442 9.46863C50.0713 9.79544 50.3308 10.1835 50.5078 10.6106C50.6849 11.0378 50.776 11.4956 50.776 11.958L50.716 64.27Z" fill="#0695FE"/>
<path d="M28.219 28.125H43.248C43.8075 28.125 44.344 27.9027 44.7396 27.5071C45.1352 27.1115 45.3575 26.575 45.3575 26.0155C45.3575 25.456 45.1352 24.9195 44.7396 24.5239C44.344 24.1283 43.8075 23.906 43.248 23.906H28.219C27.6595 23.906 27.1229 24.1283 26.7273 24.5239C26.3317 24.9195 26.1095 25.456 26.1095 26.0155C26.1095 26.575 26.3317 27.1115 26.7273 27.5071C27.1229 27.9027 27.6595 28.125 28.219 28.125Z" fill="#0695FE"/>
<path d="M28.219 42.188H43.248C43.8075 42.188 44.344 41.9657 44.7396 41.5701C45.1352 41.1745 45.3575 40.638 45.3575 40.0785C45.3575 39.519 45.1352 38.9825 44.7396 38.5869C44.344 38.1912 43.8075 37.969 43.248 37.969H28.219C27.6595 37.969 27.1229 38.1912 26.7273 38.5869C26.3317 38.9825 26.1095 39.519 26.1095 40.0785C26.1095 40.638 26.3317 41.1745 26.7273 41.5701C27.1229 41.9657 27.6595 42.188 28.219 42.188Z" fill="#0695FE"/>
<path d="M43.305 52.031H28.215C27.6555 52.031 27.119 52.2533 26.7234 52.6489C26.3278 53.0445 26.1055 53.581 26.1055 54.1405C26.1055 54.7 26.3278 55.2365 26.7234 55.6321C27.119 56.0277 27.6555 56.25 28.215 56.25H43.305C43.8645 56.25 44.4011 56.0277 44.7967 55.6321C45.1923 55.2365 45.4145 54.7 45.4145 54.1405C45.4145 53.581 45.1923 53.0445 44.7967 52.6489C44.4011 52.2533 43.8645 52.031 43.305 52.031Z" fill="#0695FE"/>
<path d="M19.215 20.2721L14.337 25.1371L13.187 23.9901C12.9911 23.7936 12.7585 23.6377 12.5024 23.5311C12.2462 23.4246 11.9716 23.3695 11.6942 23.3691C11.4168 23.3687 11.142 23.4229 10.8855 23.5287C10.6291 23.6345 10.396 23.7897 10.1995 23.9856C10.003 24.1814 9.84709 24.4141 9.74054 24.6702C9.63399 24.9264 9.57894 25.201 9.57852 25.4784C9.57811 25.7558 9.63232 26.0306 9.7381 26.2871C9.84388 26.5435 9.99913 26.7766 10.195 26.9731L12.841 29.6121C13.2382 30.008 13.7762 30.2304 14.337 30.2304C14.8978 30.2304 15.4358 30.008 15.833 29.6121L22.207 23.2561C22.6026 22.8593 22.8243 22.3217 22.8235 21.7614C22.8226 21.2011 22.5993 20.6642 22.2025 20.2686C21.8057 19.873 21.2681 19.6513 20.7078 19.6521C20.1475 19.6529 19.6106 19.8763 19.215 20.2731V20.2721Z" fill="#0695FE"/>
<path d="M19.215 35.4079L14.337 40.2729L13.187 39.1259C12.9911 38.9294 12.7585 38.7735 12.5024 38.6669C12.2462 38.5604 11.9716 38.5053 11.6942 38.5049C11.4168 38.5045 11.142 38.5587 10.8855 38.6645C10.6291 38.7703 10.396 38.9255 10.1995 39.1214C10.003 39.3173 9.84709 39.5499 9.74054 39.806C9.63399 40.0622 9.57894 40.3368 9.57852 40.6142C9.57811 40.8916 9.63232 41.1664 9.7381 41.4229C9.84388 41.6793 9.99913 41.9124 10.195 42.1089L12.841 44.7479C13.2382 45.1439 13.7762 45.3662 14.337 45.3662C14.8978 45.3662 15.4358 45.1439 15.833 44.7479L22.207 38.3889C22.6026 37.9921 22.8243 37.4545 22.8235 36.8942C22.8226 36.334 22.5993 35.797 22.2025 35.4014C21.8057 35.0058 21.2681 34.7841 20.7078 34.7849C20.1475 34.7858 19.6106 35.0091 19.215 35.4059V35.4079Z" fill="#0695FE"/>
<path d="M19.215 49.4711L14.337 54.3361L13.187 53.1891C12.9911 52.9927 12.7585 52.8367 12.5024 52.7302C12.2462 52.6236 11.9716 52.5686 11.6942 52.5681C11.4168 52.5677 11.142 52.6219 10.8855 52.7277C10.6291 52.8335 10.396 52.9888 10.1995 53.1846C10.003 53.3805 9.84709 53.6131 9.74054 53.8693C9.63399 54.1254 9.57894 54.4 9.57852 54.6774C9.57811 54.9548 9.63232 55.2296 9.7381 55.4861C9.84388 55.7425 9.99913 55.9757 10.195 56.1721L12.841 58.8111C13.2382 59.2071 13.7762 59.4294 14.337 59.4294C14.8978 59.4294 15.4358 59.2071 15.833 58.8111L22.207 52.4521C22.6026 52.0554 22.8243 51.5177 22.8235 50.9574C22.8226 50.3972 22.5993 49.8602 22.2025 49.4646C21.8057 49.0691 21.2681 48.8473 20.7078 48.8481C20.1475 48.849 19.6106 49.0724 19.215 49.4691V49.4711Z" fill="#0695FE"/>
</svg>
