<svg width="24" height="21" viewBox="0 0 24 21" fill="none" xmlns="http://www.w3.org/2000/svg">
<path d="M21.5156 5.625C21.5156 5.76562 21.5625 5.95312 21.5625 6.23438C21.5625 8.48438 21 10.6875 19.9219 12.75C18.7969 15 17.2031 16.7344 15.1875 18.0469C12.9375 19.5469 10.4062 20.25 7.54688 20.25C4.78125 20.25 2.25 19.5469 0 18.0469C0.328125 18.0938 0.703125 18.0938 1.17188 18.0938C3.42188 18.0938 5.48438 17.3906 7.3125 15.9844C6.1875 15.9844 5.25 15.7031 4.40625 15.0469C3.5625 14.3906 3 13.5938 2.71875 12.6094C3 12.6562 3.32812 12.6562 3.60938 12.6562C4.03125 12.6562 4.45312 12.6094 4.92188 12.5156C3.79688 12.2812 2.85938 11.7188 2.10938 10.7812C1.35938 9.89062 0.984375 8.85938 0.984375 7.6875V7.59375C1.64062 8.01562 2.39062 8.25 3.1875 8.25C2.53125 7.78125 1.96875 7.21875 1.59375 6.46875C1.17188 5.76562 0.984375 4.96875 0.984375 4.125C0.984375 3.28125 1.21875 2.4375 1.6875 1.64062C2.90625 3.1875 4.35938 4.40625 6.14062 5.29688C7.92188 6.23438 9.79688 6.70312 11.8125 6.79688C11.7188 6.42188 11.7188 6.04688 11.7188 5.67188C11.7188 4.82812 11.9062 3.98438 12.375 3.23438C12.7969 2.48438 13.4062 1.875 14.1562 1.40625C14.9062 0.984375 15.7031 0.75 16.5938 0.75C17.2969 0.75 17.9531 0.890625 18.5625 1.17188C19.1719 1.45312 19.7344 1.82812 20.2031 2.29688C21.3281 2.10938 22.3594 1.6875 23.3438 1.125C22.9688 2.29688 22.2188 3.1875 21.1875 3.84375C22.125 3.75 23.0625 3.46875 24 3.04688C23.2969 4.07812 22.4531 4.92188 21.5156 5.625Z" fill="white"/>
</svg>
