<svg width="37" height="37" viewBox="0 0 37 37" fill="none" xmlns="http://www.w3.org/2000/svg">
<path d="M18.5 0C14.841 0 11.2642 1.08524 8.22194 3.11805C5.17963 5.15086 2.80847 8.03966 1.40824 11.4201C0.0080234 14.8005 -0.358349 18.5204 0.355478 22.109C1.0693 25.6977 2.83118 28.9944 5.41846 31.5817C8.00573 34.1689 11.3022 35.9307 14.8908 36.6445C18.4795 37.3583 22.1992 36.9921 25.5796 35.5919C28.9601 34.1917 31.8494 31.8205 33.8822 28.7782C35.915 25.7359 37 22.159 37 18.5C37 13.5935 35.051 8.88775 31.5815 5.41833C28.1121 1.9489 23.4065 0 18.5 0ZM31.9082 9.44714C33.5012 11.792 34.445 14.5165 34.6439 17.3443H25.3874C25.3417 15.2485 25.1479 13.1585 24.8074 11.0901C27.2186 10.7569 29.5946 10.2071 31.907 9.44714H31.9082ZM30.3161 7.45346C28.3691 8.06421 26.3762 8.51841 24.3568 8.81162C23.8959 6.7675 23.2652 4.76545 22.471 2.82633C25.474 3.5877 28.1972 5.19339 30.3161 7.45346ZM13.9295 17.3443C13.9798 15.3448 14.1788 13.3518 14.5247 11.3818C15.8306 11.4907 17.1495 11.5625 18.5 11.5625C19.8505 11.5625 21.1749 11.4961 22.4765 11.3818C22.8222 13.3518 23.0211 15.3448 23.0717 17.3443H13.9295ZM23.0705 19.6568C23.0196 21.6559 22.8207 23.6485 22.4753 25.6182C21.1694 25.5093 19.8505 25.4375 18.4989 25.4375C17.1473 25.4375 15.824 25.5039 14.5235 25.6182C14.1776 23.6486 13.9786 21.6559 13.9283 19.6568H23.0705ZM17.377 2.36882C17.7491 2.34488 18.1202 2.3125 18.4989 2.3125C18.8776 2.3125 19.2498 2.3438 19.6209 2.36882C20.6425 4.52991 21.4375 6.7912 21.9932 9.1161C20.8429 9.2173 19.6786 9.27604 18.4989 9.27604C17.3193 9.27604 16.1548 9.21621 15.0056 9.1161C15.561 6.79076 16.3561 4.5291 17.378 2.36776L17.377 2.36882ZM14.529 2.82314C13.7352 4.76229 13.1048 6.76435 12.6442 8.80844C10.6244 8.5153 8.63129 8.0611 6.6839 7.45027C8.80343 5.18984 11.5264 3.58413 14.5302 2.82314H14.529ZM5.0918 9.44714C7.40417 10.2071 9.78039 10.7568 12.1915 11.0901C11.851 13.1585 11.6572 15.2485 11.6115 17.3443H2.35487C2.55419 14.5164 3.49848 11.7919 5.0918 9.44714ZM5.0918 27.5518C3.4989 25.2077 2.55508 22.4839 2.35607 19.6568H11.6126C11.6583 21.7522 11.8521 23.8418 12.1926 25.9099C9.78126 26.2436 7.40477 26.7929 5.0918 27.5518ZM6.6839 29.5465C8.63149 28.9365 10.6246 28.4823 12.6442 28.1884C13.1049 30.2324 13.7353 32.2345 14.529 34.1737C11.5258 33.412 8.80376 31.806 6.68496 29.5455L6.6839 29.5465ZM19.622 34.6312C19.2498 34.6573 18.8787 34.6875 18.5 34.6875C18.1213 34.6875 17.7502 34.6573 17.378 34.6312C16.3563 32.4703 15.5616 30.2089 15.0068 27.8839C16.156 27.7827 17.3214 27.724 18.5 27.724C19.6786 27.724 20.8441 27.7838 21.9944 27.8839C21.4389 30.2085 20.6438 32.469 19.622 34.6296V34.6312ZM22.4698 34.1769C23.2639 32.2377 23.8948 30.2357 24.3558 28.1916C26.375 28.4855 28.3678 28.9397 30.315 29.5497C28.1958 31.81 25.4732 33.4157 22.4698 34.1769ZM31.907 27.5518C29.5944 26.7925 27.2184 26.2428 24.8074 25.9088C25.1479 23.8408 25.3417 21.7511 25.3874 19.6557H34.6439C34.4448 22.4833 33.5005 25.2076 31.907 27.5518Z" fill="#0695FE"/>
</svg>
