<svg width="120" height="121" viewBox="0 0 120 121" fill="none" xmlns="http://www.w3.org/2000/svg">
<rect y="0.500244" width="120" height="120" rx="60" fill="url(#paint0_linear_133_1465)"/>
<path d="M50.2072 38.6783H45.0789V40.2832H50.2072C58.4822 40.2832 64.8768 42.4562 69.219 46.7391C73.4196 50.8823 75.5486 56.8331 75.5486 64.429C75.5486 69.0753 74.7375 73.0942 73.1594 76.4436C73.0026 76.7745 72.8419 77.0978 72.6716 77.4153C72.5435 77.6525 72.4115 77.8878 72.2738 78.1193L72.1188 78.3737C72.0729 78.4502 72.0251 78.5286 71.9754 78.6051C71.8874 78.7467 71.7955 78.8882 71.7018 79.026C71.6215 79.1465 71.5373 79.2689 71.4551 79.3894C71.3881 79.4831 71.3212 79.5788 71.2523 79.6725C71.2293 79.7031 71.2083 79.7337 71.1854 79.7662C71.1528 79.8083 71.1203 79.8523 71.0878 79.8963C71.0208 79.9881 70.952 80.078 70.8812 80.1679C70.6842 80.4223 70.4795 80.671 70.2691 80.912C70.2002 80.9924 70.1295 81.0727 70.0587 81.1511C70.0319 81.1817 70.0032 81.2123 69.9764 81.241C65.6936 85.9505 59.0158 88.4295 50.2053 88.4295H36.7408V40.2832H41.7715V38.6783H34.8394V90.0306H50.2072C61.8794 90.0306 70.0759 86.0385 74.2803 78.5439C74.4238 78.2895 74.5615 78.0313 74.6954 77.7692L74.8255 77.5033C74.8638 77.4268 74.902 77.3503 74.9384 77.2738C75.0397 77.0634 75.1354 76.853 75.2291 76.6387C75.2521 76.5909 75.2731 76.5412 75.2941 76.4914C75.384 76.2829 75.4701 76.0744 75.5562 75.8602C75.5619 75.8449 75.5696 75.8296 75.5753 75.8124C75.5983 75.7512 75.6251 75.6881 75.648 75.6268C75.6901 75.5159 75.7322 75.4069 75.7724 75.2959C75.8393 75.1142 75.9024 74.9325 75.9655 74.7469C76.0363 74.5423 76.1052 74.3318 76.1683 74.1233L76.1817 74.0774C77.0731 71.2177 77.5245 67.9984 77.5245 64.429C77.5245 47.8236 67.8245 38.6783 50.2072 38.6783Z" fill="white"/>
<path d="M85.1606 56.7202C85.1606 66.4298 81.8055 73.5762 75.4548 77.8131C75.8144 77.0824 76.1396 76.3211 76.4285 75.5388C76.5738 75.1447 76.7096 74.743 76.8359 74.3337C81.0002 70.2708 83.1808 64.3391 83.1808 56.7202C83.1808 49.1262 81.0518 43.1734 76.8512 39.0302C72.509 34.7454 66.1125 32.5744 57.8394 32.5744L44.0249 32.5208V47.3473H49.903C54.6546 47.3473 58.3636 48.5428 60.9306 50.8994C63.5263 53.2828 64.8424 56.7527 64.8424 61.2096C64.8424 63.396 64.5229 65.372 63.8898 67.084C63.666 67.6923 63.2891 68.3809 62.9525 68.9796C60.9918 72.4763 57.5315 74.5307 52.6652 75.0892L52.428 75.116V73.4939L52.5753 73.4748C56.1007 73.0291 58.7786 71.6633 60.5308 69.4157C60.9727 68.8514 61.3495 68.2948 61.5637 67.8931C62.545 66.0702 63.0405 63.8207 63.0405 61.2096C63.0405 57.4662 61.9119 54.4535 59.6834 52.2556C57.4645 50.0654 54.1744 48.954 49.903 48.954H44.0249V71.2616L42.4716 71.2655V30.9695H57.8394C75.4586 30.9695 85.1606 40.1148 85.1606 56.7202Z" fill="white"/>
<path d="M44.9641 60.6742V71.2962L44.3156 71.2981V60.6742H44.9641Z" fill="white"/>
<path d="M45.8937 65.9977H45.2453V71.2982H45.8937V65.9977Z" fill="white"/>
<path d="M72.6888 75.1526C70.9654 77.4193 68.7426 79.1753 66.2674 80.3479C63.7865 81.5147 61.0683 82.1019 58.3425 82.1058C55.6186 82.1019 52.9005 81.5147 50.4176 80.3479C47.9424 79.1734 45.7197 77.4174 43.9962 75.1526C43.9618 75.1067 43.8967 75.0971 43.8508 75.1315C43.8106 75.1621 43.7992 75.2157 43.8183 75.2578C45.0482 77.8822 47.2251 80.0743 49.7998 81.53C52.3744 83.0086 55.3661 83.7527 58.3406 83.7585C61.317 83.7527 64.3068 83.0067 66.8815 81.53C69.4561 80.0743 71.6349 77.8822 72.8629 75.2578C72.8878 75.2061 72.8648 75.143 72.8132 75.1201C72.7711 75.1009 72.7194 75.1143 72.6888 75.1526Z" fill="white"/>
<path d="M41.7868 76.44C41.9915 76.088 42.223 75.7552 42.485 75.4721C42.7509 75.1928 43.0417 74.9499 43.3726 74.7758C43.4491 74.7203 43.5428 74.6974 43.6251 74.6534L43.7532 74.5941L43.8891 74.5501C43.9809 74.5233 44.0689 74.487 44.1626 74.4621C44.2582 74.4449 44.352 74.4219 44.4476 74.4009C44.4954 74.3913 44.5432 74.376 44.5911 74.3703C44.6408 74.3665 44.6886 74.3607 44.7384 74.3531L45.0387 74.3129C45.2414 74.2957 45.4461 74.2957 45.6603 74.267L45.6737 74.2651C45.7311 74.2574 45.7713 74.2058 45.7636 74.1484C45.7579 74.1082 45.7311 74.0757 45.6948 74.0642C45.4882 73.9935 45.2759 73.9323 45.0578 73.8883L44.725 73.8538C44.6121 73.8385 44.5012 73.8366 44.3864 73.8462C44.2735 73.8519 44.1588 73.8577 44.044 73.8691C43.9311 73.8863 43.8183 73.915 43.7054 73.9418C43.6499 73.9552 43.5926 73.9667 43.5371 73.9839L43.3745 74.0489C43.2674 74.0948 43.1545 74.1293 43.0551 74.1943C42.6381 74.4105 42.2861 74.7433 42.0336 75.1259C41.7792 75.5084 41.6166 75.9369 41.5841 76.3941C41.5803 76.4515 41.6243 76.5012 41.6816 76.505C41.7218 76.5089 41.7601 76.4859 41.7792 76.4534L41.7868 76.44Z" fill="white"/>
<defs>
<linearGradient id="paint0_linear_133_1465" x1="14" y1="107" x2="112.5" y2="18" gradientUnits="userSpaceOnUse">
<stop stop-color="#0695FE"/>
<stop offset="1" stop-color="#F64B91"/>
</linearGradient>
</defs>
</svg>
