<svg width="51" height="60" viewBox="0 0 51 60" fill="none" xmlns="http://www.w3.org/2000/svg">
<path d="M15.3678 8.17773H10.2395V9.78261H15.3678C23.6428 9.78261 30.0374 11.9556 34.3796 16.2385C38.5802 20.3817 40.7092 26.3325 40.7092 33.9284C40.7092 38.5747 39.8981 42.5936 38.32 45.943C38.1632 46.2739 38.0025 46.5972 37.8322 46.9147C37.7041 47.1519 37.5721 47.3872 37.4344 47.6187L37.2794 47.8731C37.2335 47.9496 37.1857 48.028 37.136 48.1045C37.048 48.2461 36.9561 48.3876 36.8624 48.5253C36.7821 48.6459 36.6979 48.7683 36.6157 48.8888C36.5487 48.9825 36.4818 49.0782 36.4129 49.1719C36.3899 49.2025 36.3689 49.2331 36.346 49.2656C36.3134 49.3077 36.2809 49.3517 36.2484 49.3957C36.1814 49.4875 36.1126 49.5774 36.0418 49.6673C35.8448 49.9217 35.6401 50.1704 35.4297 50.4114C35.3608 50.4918 35.2901 50.5721 35.2193 50.6505C35.1925 50.6811 35.1638 50.7117 35.137 50.7404C30.8542 55.4498 24.1764 57.9289 15.3659 57.9289H1.90137V9.78261H6.93215V8.17773H0V59.5299H15.3678C27.04 59.5299 35.2365 55.5378 39.4409 48.0433C39.5844 47.7889 39.7221 47.5307 39.856 47.2686L39.9861 47.0027C40.0244 46.9262 40.0626 46.8497 40.099 46.7732C40.2003 46.5628 40.296 46.3524 40.3897 46.1381C40.4127 46.0903 40.4337 46.0406 40.4547 45.9908C40.5446 45.7823 40.6307 45.5738 40.7168 45.3596C40.7225 45.3443 40.7302 45.329 40.7359 45.3118C40.7589 45.2506 40.7857 45.1874 40.8086 45.1262C40.8507 45.0153 40.8928 44.9062 40.9329 44.7953C40.9999 44.6136 41.063 44.4319 41.1261 44.2463C41.1969 44.0416 41.2658 43.8312 41.3289 43.6227L41.3423 43.5768C42.2337 40.7171 42.6851 37.4978 42.6851 33.9284C42.6851 17.323 32.9851 8.17773 15.3678 8.17773Z" fill="black"/>
<path d="M50.3212 26.2199C50.3212 35.9295 46.9661 43.0759 40.6154 47.3129C40.975 46.5822 41.3002 45.8209 41.5891 45.0385C41.7344 44.6445 41.8703 44.2428 41.9965 43.8334C46.1608 39.7705 48.3414 33.8388 48.3414 26.2199C48.3414 18.626 46.2124 12.6732 42.0118 8.52997C37.6697 4.2452 31.2731 2.07412 23.0001 2.07412L9.18549 2.02056V16.847H15.0637C19.8152 16.847 23.5242 18.0425 26.0912 20.3992C28.6869 22.7826 30.003 26.2525 30.003 30.7094C30.003 32.8958 29.6835 34.8717 29.0504 36.5837C28.8266 37.192 28.4497 37.8806 28.1131 38.4794C26.1524 41.976 22.6921 44.0304 17.8258 44.589L17.5886 44.6158V42.9937L17.7359 42.9746C21.2613 42.5289 23.9393 41.1631 25.6914 38.9155C26.1333 38.3512 26.5101 37.7946 26.7244 37.3929C27.7057 35.5699 28.2011 33.3204 28.2011 30.7094C28.2011 26.966 27.0725 23.9532 24.844 21.7554C22.6251 19.5652 19.335 18.4538 15.0637 18.4538H9.18549V40.7614L7.63226 40.7652V0.469238H23.0001C40.6193 0.469238 50.3212 9.61455 50.3212 26.2199Z" fill="black"/>
<path d="M10.1247 30.1738V40.7959L9.4762 40.7978V30.1738H10.1247Z" fill="black"/>
<path d="M11.0543 35.4971H10.4059V40.7976H11.0543V35.4971Z" fill="black"/>
<path d="M37.8494 44.6521C36.126 46.9188 33.9032 48.6748 31.428 49.8474C28.9471 51.0142 26.2289 51.6015 23.5031 51.6053C20.7792 51.6015 18.0611 51.0142 15.5782 49.8474C13.103 48.6729 10.8802 46.9169 9.15677 44.6521C9.12234 44.6062 9.0573 44.5966 9.01139 44.631C8.97122 44.6617 8.95975 44.7152 8.97887 44.7573C10.2088 47.3817 12.3856 49.5738 14.9603 51.0295C17.535 52.5081 20.5267 53.2522 23.5012 53.258C26.4776 53.2522 29.4673 52.5062 32.042 51.0295C34.6167 49.5738 36.7955 47.3817 38.0235 44.7573C38.0484 44.7057 38.0254 44.6425 37.9738 44.6196C37.9317 44.6004 37.88 44.6138 37.8494 44.6521Z" fill="black"/>
<path d="M6.94744 45.9395C7.15211 45.5875 7.38357 45.2547 7.64563 44.9716C7.91151 44.6923 8.20227 44.4494 8.53319 44.2753C8.6097 44.2199 8.70343 44.1969 8.78568 44.1529L8.91384 44.0936L9.04966 44.0496C9.14147 44.0228 9.22946 43.9865 9.32319 43.9616C9.41883 43.9444 9.51256 43.9215 9.60821 43.9004C9.65603 43.8908 9.70385 43.8755 9.75167 43.8698C9.8014 43.866 9.84922 43.8602 9.89896 43.8526L10.1993 43.8124C10.402 43.7952 10.6067 43.7952 10.8209 43.7665L10.8343 43.7646C10.8917 43.757 10.9319 43.7053 10.9242 43.6479C10.9185 43.6077 10.8917 43.5752 10.8554 43.5637C10.6488 43.493 10.4365 43.4318 10.2184 43.3878L9.88557 43.3533C9.77271 43.338 9.66177 43.3361 9.547 43.3457C9.43414 43.3514 9.31937 43.3572 9.2046 43.3686C9.09174 43.3859 8.97888 43.4146 8.86602 43.4413C8.81055 43.4547 8.75317 43.4662 8.69769 43.4834L8.5351 43.5485C8.42798 43.5944 8.31512 43.6288 8.21566 43.6938C7.79866 43.91 7.44669 44.2428 7.1942 44.6254C6.93979 45.008 6.7772 45.4364 6.74468 45.8936C6.74085 45.951 6.78485 46.0007 6.84223 46.0045C6.8824 46.0084 6.92066 45.9854 6.93979 45.9529L6.94744 45.9395Z" fill="black"/>
</svg>
